<svg xmlns="http://www.w3.org/2000/svg" version="1.1" xmlns:xlink="http://www.w3.org/1999/xlink" xmlns:svgjs="http://svgjs.com/svgjs" width="1440" height="560" preserveAspectRatio="none" viewBox="0 0 1440 560">
    <g mask="url(&quot;#SvgjsMask1049&quot;)" fill="none">
        <rect width="1440" height="560" x="0" y="0" fill="url(#SvgjsLinearGradient1050)"></rect>
        <path d="M155.7823805063936 341.4530895111596L90.93389359352369 375.9336416317085 175.078965230782 455.9660959407389z" fill="rgba(28, 83, 142, 0.4)" class="triangle-float3"></path>
        <path d="M242.4123704355198 399.4473631880786L138.4130287069758 461.9364720375504 200.90213755644757 565.9358137660944 304.9014792849915 503.4467049166226z" fill="rgba(28, 83, 142, 0.4)" class="triangle-float2"></path>
        <path d="M93.876,465.64C136.404,465.338,180.937,452.852,202.042,415.929C223.025,379.219,212.173,333.966,189.562,298.236C168.643,265.18,132.99,244.364,93.876,245.007C55.839,245.632,24.056,269.292,3.487,301.294C-19.304,336.752,-37.297,380.551,-16.984,417.485C3.826,455.322,50.695,465.947,93.876,465.64" fill="rgba(28, 83, 142, 0.4)" class="triangle-float2"></path>
        <path d="M992.914,658.41C1053.447,659.387,1115.135,631.881,1141.831,577.544C1166.392,527.553,1135.727,473.426,1107.341,425.503C1079.747,378.917,1046.999,328.689,992.914,326.13C935.531,323.415,886.534,363.815,858.06,413.709C829.856,463.128,824.637,523.032,852.101,572.866C880.512,624.419,934.059,657.46,992.914,658.41" fill="rgba(28, 83, 142, 0.4)" class="triangle-float1"></path>
        <path d="M108.08 60.51 a166.21 166.21 0 1 0 332.42 0 a166.21 166.21 0 1 0 -332.42 0z" fill="rgba(28, 83, 142, 0.4)" class="triangle-float1"></path>
        <path d="M298.0787511890974 127.36421798411898L209.0532779079878 85.8509580222644 191.2961246057607 240.14579792485603z" fill="rgba(28, 83, 142, 0.4)" class="triangle-float2"></path>
        <path d="M875.1586039345973 129.55097703107072L791.5048414018302 263.4249816964585 1009.032608599985 213.20473956383785z" fill="rgba(28, 83, 142, 0.4)" class="triangle-float3"></path>
        <path d="M738.2585739615271 308.99726421973946L590.1408976726685 337.7884239255283 618.9320573784573 485.9061002143869 767.049733667316 457.114940508598z" fill="rgba(28, 83, 142, 0.4)" class="triangle-float3"></path>
        <path d="M1215.94 4.34 a124.14 124.14 0 1 0 248.28 0 a124.14 124.14 0 1 0 -248.28 0z" fill="rgba(28, 83, 142, 0.4)" class="triangle-float1"></path>
        <path d="M1344.8,501.038C1380.689,501.148,1403.56,466.569,1420.38,434.866C1435.869,405.671,1444.002,372.079,1428.783,342.743C1412.395,311.155,1380.384,288.761,1344.8,289.183C1309.837,289.597,1280.203,313.607,1264.196,344.693C1249.492,373.248,1255.302,405.857,1270.02,434.404C1286.418,466.21,1309.016,500.928,1344.8,501.038" fill="rgba(28, 83, 142, 0.4)" class="triangle-float3"></path>
        <path d="M577.359,160.881C616.492,160.213,653.325,137.524,669.734,101.991C684.203,70.658,664.916,37.955,648.02,7.862C630.574,-23.21,612.886,-59.765,577.359,-62.534C538.469,-65.565,504.318,-38.555,484.643,-4.872C464.778,29.135,460.13,70.868,479.356,105.24C499.012,140.379,537.102,161.568,577.359,160.881" fill="rgba(28, 83, 142, 0.4)" class="triangle-float1"></path>
        <path d="M1363.162,579.133C1390.876,579.074,1413.837,560.102,1427.712,536.111C1441.607,512.085,1445.387,483.369,1432.872,458.596C1419.027,431.19,1393.832,409.774,1363.162,408.333C1330.077,406.779,1296.097,421.934,1281.101,451.465C1267.09,479.055,1281.402,510.357,1298.134,536.387C1313.167,559.774,1335.36,579.192,1363.162,579.133" fill="rgba(28, 83, 142, 0.4)" class="triangle-float1"></path>
    </g>
    <defs>
        <mask id="SvgjsMask1049">
            <rect width="1440" height="560" fill="#ffffff"></rect>
        </mask>
        <linearGradient x1="15.28%" y1="-39.29%" x2="84.72%" y2="139.29%" gradientUnits="userSpaceOnUse" id="SvgjsLinearGradient1050">
            <stop stop-color="#0e2a47" offset="0"></stop>
            <stop stop-color="rgba(0, 84, 158, 1)" offset="1"></stop>
        </linearGradient>
        <style>
            @keyframes float1 {
                0%{transform: translate(0, 0)}
                50%{transform: translate(-10px, 0)}
                100%{transform: translate(0, 0)}
            }

            .triangle-float1 {
                animation: float1 5s infinite;
            }

            @keyframes float2 {
                0%{transform: translate(0, 0)}
                50%{transform: translate(-5px, -5px)}
                100%{transform: translate(0, 0)}
            }

            .triangle-float2 {
                animation: float2 4s infinite;
            }

            @keyframes float3 {
                0%{transform: translate(0, 0)}
                50%{transform: translate(0, -10px)}
                100%{transform: translate(0, 0)}
            }

            .triangle-float3 {
                animation: float3 6s infinite;
            }
        </style>
    </defs>
</svg>